<svg width="14" height="16" viewBox="0 0 14 16" fill="none" xmlns="http://www.w3.org/2000/svg">
<path d="M12.4712 0H4.73806C4.1892 0 3.74023 0.448971 3.74023 0.997823V1.49673H10.4755C11.3009 1.49673 11.9723 2.16812 11.9723 2.99347V11.9739H12.4712C13.02 11.9739 13.469 11.5249 13.469 10.9761V0.997823C13.469 0.448971 13.02 0 12.4712 0Z" fill="#ABABAB"/>
<path d="M10.477 1.99805H2.74392C2.19506 1.99805 1.74609 2.44702 1.74609 2.99587V3.49478H8.4814H8.73086C9.55621 3.49478 10.2276 4.16617 10.2276 4.99152V13.9719H10.477C11.0259 13.9719 11.4749 13.523 11.4749 12.9741V2.99587C11.4749 2.44702 11.0259 1.99805 10.477 1.99805Z" fill="#ABABAB"/>
<path d="M8.73095 3.99023H0.997823C0.448969 3.99023 0 4.43921 0 4.98806V14.9663C0 15.5151 0.448969 15.9641 0.997823 15.9641H8.73095C9.27981 15.9641 9.72878 15.5151 9.72878 14.9663V4.98806C9.72878 4.43921 9.27981 3.99023 8.73095 3.99023ZM3.24293 13.657C3.24293 13.9314 3.01844 14.1559 2.74401 14.1559H1.49674C1.22231 14.1559 0.997823 13.9314 0.997823 13.657V12.5345C0.997823 12.26 1.22231 12.0355 1.49674 12.0355H2.74401C3.01844 12.0355 3.24293 12.26 3.24293 12.5345V13.657ZM3.24293 10.5384C3.24293 10.8129 3.01844 11.0374 2.74401 11.0374H1.49674C1.22231 11.0374 0.997823 10.8129 0.997823 10.5384V9.4159C0.997823 9.14147 1.22231 8.91699 1.49674 8.91699H2.74401C3.01844 8.91699 3.24293 9.14147 3.24293 9.4159V10.5384ZM3.24293 7.41989C3.24293 7.69432 3.01844 7.9188 2.74401 7.9188H1.49674C1.22231 7.9188 0.997823 7.69432 0.997823 7.41989V6.29734C0.997823 6.02291 1.22231 5.79843 1.49674 5.79843H2.74401C3.01844 5.79843 3.24293 6.02291 3.24293 6.29734V7.41989ZM5.98694 13.657C5.98694 13.9314 5.76245 14.1559 5.48803 14.1559H4.24075C3.96632 14.1559 3.74184 13.9314 3.74184 13.657V12.5345C3.74184 12.26 3.96632 12.0355 4.24075 12.0355H5.48803C5.76245 12.0355 5.98694 12.26 5.98694 12.5345V13.657ZM5.98694 10.5384C5.98694 10.8129 5.76245 11.0374 5.48803 11.0374H4.24075C3.96632 11.0374 3.74184 10.8129 3.74184 10.5384V9.4159C3.74184 9.14147 3.96632 8.91699 4.24075 8.91699H5.48803C5.76245 8.91699 5.98694 9.14147 5.98694 9.4159V10.5384ZM5.98694 7.41989C5.98694 7.69432 5.76245 7.9188 5.48803 7.9188H4.24075C3.96632 7.9188 3.74184 7.69432 3.74184 7.41989V6.29734C3.74184 6.02291 3.96632 5.79843 4.24075 5.79843H5.48803C5.76245 5.79843 5.98694 6.02291 5.98694 6.29734V7.41989ZM8.73095 13.657C8.73095 13.9314 8.50647 14.1559 8.23204 14.1559H6.98476C6.71034 14.1559 6.48585 13.9314 6.48585 13.657V12.5345C6.48585 12.26 6.71034 12.0355 6.98476 12.0355H8.23204C8.50647 12.0355 8.73095 12.26 8.73095 12.5345V13.657ZM8.73095 10.5384C8.73095 10.8129 8.50647 11.0374 8.23204 11.0374H6.98476C6.71034 11.0374 6.48585 10.8129 6.48585 10.5384V9.4159C6.48585 9.14147 6.71034 8.91699 6.98476 8.91699H8.23204C8.50647 8.91699 8.73095 9.14147 8.73095 9.4159V10.5384ZM8.73095 7.41989C8.73095 7.69432 8.50647 7.9188 8.23204 7.9188H6.98476C6.71034 7.9188 6.48585 7.69432 6.48585 7.41989V6.29734C6.48585 6.02291 6.71034 5.79843 6.98476 5.79843H8.23204C8.50647 5.79843 8.73095 6.02291 8.73095 6.29734V7.41989Z" fill="#ABABAB"/>
</svg>
