<svg width="24" height="24" viewBox="0 0 24 24" fill="none" xmlns="http://www.w3.org/2000/svg">
<path d="M19.2 0H4.8C3.52695 0 2.30595 0.505762 1.40586 1.40586C0.505762 2.30595 0 3.52695 0 4.8V19.2C0 20.473 0.505762 21.694 1.40586 22.5941C2.30595 23.4942 3.52695 24 4.8 24H19.2C20.473 24 21.694 23.4942 22.5941 22.5941C23.4942 21.694 24 20.473 24 19.2V4.8C24 3.52695 23.4942 2.30595 22.5941 1.40586C21.694 0.505762 20.473 0 19.2 0ZM20.5867 12.1067C20.2324 12.1067 19.8843 12.0133 19.5776 11.8362C19.2709 11.6589 19.0162 11.4041 18.8393 11.0972L14.786 12.4331C14.9504 13.3459 14.6522 14.2806 13.99 14.9298L16.4753 18.3122V18.312C17.089 18.0311 17.8021 18.0741 18.3776 18.4266C18.953 18.7793 19.3153 19.3952 19.3436 20.0695C19.372 20.7437 19.0631 21.3879 18.5193 21.7876C17.9756 22.1874 17.2686 22.2903 16.6334 22.062C15.9983 21.8338 15.5184 21.3044 15.3536 20.65C15.1886 19.9956 15.3603 19.302 15.8114 18.8001L13.3255 15.4184C12.4967 15.8587 11.5032 15.8587 10.6741 15.4184L8.18863 18.8001C8.63785 19.3014 8.80806 19.9935 8.64288 20.6463C8.47751 21.299 7.99816 21.8265 7.3644 22.0537C6.7305 22.2806 6.0253 22.1774 5.48307 21.7782C4.94102 21.379 4.63297 20.7361 4.66183 20.0635C4.69047 19.3909 5.0519 18.7765 5.62611 18.425C6.20035 18.0734 6.91183 18.0306 7.52397 18.3107L10.0093 14.9283C9.34688 14.2793 9.04888 13.3444 9.2133 12.4318L5.15992 11.0959C4.82957 11.6649 4.24216 12.0371 3.58645 12.0931C2.93059 12.1489 2.28883 11.8814 1.86697 11.3764C1.44491 10.8714 1.29573 10.1922 1.46723 9.5568C1.63892 8.92137 2.10952 8.40965 2.72838 8.18551C3.34723 7.96155 4.03642 8.05344 4.5749 8.43179C5.11342 8.81014 5.43352 9.42731 5.4328 10.0855C5.43243 10.1614 5.42797 10.2372 5.41923 10.3126L9.47037 11.6483C9.88332 10.826 10.6705 10.2559 11.5807 10.1199L11.5732 5.82539C10.9164 5.6829 10.3736 5.2231 10.1251 4.59862C9.8768 3.97419 9.95529 3.26715 10.3348 2.71248C10.7142 2.15781 11.3448 1.82819 12.0168 1.83339C12.6887 1.83859 13.3141 2.17788 13.685 2.73834C14.0557 3.29896 14.1232 4.00715 13.8652 4.62767C13.6071 5.24819 13.0572 5.69967 12.3983 5.83172L12.4069 10.1189C13.3215 10.2519 14.1137 10.8233 14.5284 11.6494L18.5795 10.3137H18.5797C18.5181 9.76829 18.6811 9.22139 19.0311 8.79881C19.381 8.37601 19.8881 8.1141 20.4353 8.073C20.9826 8.0319 21.523 8.2153 21.9322 8.58081C22.3416 8.94651 22.5843 9.46286 22.605 10.0114C22.6255 10.5598 22.422 11.0929 22.0412 11.4882C21.6606 11.8835 21.1353 12.1067 20.5866 12.1067L20.5867 12.1067Z" fill="#ABABAB"/>
</svg>
