<svg width="14" height="14" viewBox="0 0 14 14" fill="none" xmlns="http://www.w3.org/2000/svg">
<path d="M1.12912 13.5772C0.93042 13.5769 0.741001 13.4931 0.607078 13.3463C0.470685 13.2007 0.402911 13.0038 0.420786 12.8051L0.594328 10.8969L8.61124 2.88279L11.1166 5.38745L3.10183 13.4008L1.19358 13.5744C1.17162 13.5765 1.14966 13.5772 1.12912 13.5772ZM11.6167 4.88666L9.11204 2.38199L10.6144 0.87962C10.7473 0.746611 10.9276 0.671875 11.1156 0.671875C11.3036 0.671875 11.4838 0.746611 11.6167 0.87962L13.1191 2.38199C13.2521 2.51486 13.3268 2.69514 13.3268 2.88314C13.3268 3.07114 13.2521 3.25143 13.1191 3.38429L11.6174 4.88595L11.6167 4.88666Z" fill="white"/>
</svg>
