<svg width="19" height="19" viewBox="0 0 19 19" fill="none" xmlns="http://www.w3.org/2000/svg">
<path d="M9.5 0C14.7452 0 19 4.2548 19 9.5C19 14.7452 14.7452 19 9.5 19C4.2548 19 0 14.7452 0 9.5C0 4.2548 4.2548 0 9.5 0ZM9.5 0.904681C4.75242 0.904681 0.904762 4.75226 0.904762 9.49992C0.904762 14.2476 4.75234 18.0952 9.5 18.0952C14.2477 18.0952 18.0952 14.2476 18.0952 9.49992C18.0952 4.75226 14.2477 0.904681 9.5 0.904681Z" fill="#ABABAB"/>
<path fill-rule="evenodd" clip-rule="evenodd" d="M15.6603 10.3674C15.4272 13.8303 12.5433 16.5675 9.02156 16.5675C5.34819 16.5675 2.36914 13.5884 2.36914 9.91503C2.36914 6.4182 5.06763 3.54978 8.49648 3.2832V9.80436C8.49648 10.1164 8.7475 10.3676 9.05739 10.3676H15.6597L15.6603 10.3674Z" fill="#ABABAB"/>
<path fill-rule="evenodd" clip-rule="evenodd" d="M10.6074 2.43164C13.7808 2.71438 16.3119 5.22287 16.6285 8.38489H10.6074V2.43164Z" fill="#ABABAB"/>
</svg>
