<svg width="16" height="19" viewBox="0 0 16 19" fill="none" xmlns="http://www.w3.org/2000/svg">
<path d="M12.2943 17.3252C12.2943 18.25 11.5423 19 10.6178 19H1.67655C0.750942 19 0 18.25 0 17.3252V5.02775C0 4.10292 0.751994 3.35293 1.67655 3.35293H10.6178C11.5434 3.35293 12.2943 4.10292 12.2943 5.02775V17.3252ZM6.14712 11.7354C7.53596 11.7354 8.66181 10.6096 8.66181 9.22075C8.66181 7.83195 7.53592 6.70606 6.14712 6.70606C4.75815 6.70606 3.6323 7.83195 3.6323 9.22075C3.6323 10.6096 4.75819 11.7354 6.14712 11.7354ZM2.79416 13.6914C2.79416 13.8456 2.91927 13.9707 3.07354 13.9707H9.22073C9.37513 13.9707 9.50011 13.8456 9.50011 13.6914V13.1325C9.50011 12.9782 9.37513 12.8531 9.22073 12.8531H3.07354C2.91927 12.8531 2.79416 12.9782 2.79416 13.1325V13.6914ZM4.1912 15.9265C4.1912 16.0809 4.31632 16.2061 4.47059 16.2061H7.82355C7.97782 16.2061 8.10293 16.0809 8.10293 15.9265V15.3678C8.10293 15.2135 7.97782 15.0884 7.82355 15.0884H4.47059C4.31632 15.0884 4.1912 15.2135 4.1912 15.3678V15.9265ZM3.35293 2.23532V1.67641C3.35293 0.750535 4.1036 0 5.02948 0H13.9707C14.8966 0 15.6472 0.750535 15.6472 1.67641V13.9708C15.6472 14.8967 14.8966 15.6472 13.9707 15.6472H13.4119V5.02788C13.4119 3.48559 12.1604 2.23539 10.6177 2.23539L3.35293 2.23532ZM6.14712 10.6177C5.37552 10.6177 4.74994 9.99215 4.74994 9.22068C4.74994 8.44908 5.37552 7.82364 6.14712 7.82364C6.91859 7.82364 7.54417 8.44908 7.54417 9.22068C7.54417 9.99215 6.91859 10.6177 6.14712 10.6177Z" fill="#ABABAB"/>
</svg>
