<svg width="17" height="16" viewBox="0 0 17 16" fill="none" xmlns="http://www.w3.org/2000/svg">
<path d="M0 0V15.8767H17V0H0ZM11.5781 2.09514H14.6022L14.6024 3.19687H11.5783L11.5781 2.09514ZM11.5781 8.70505H14.6022V9.80667H11.5781V8.70505ZM6.3723 4.55766C6.3723 3.60718 7.08513 2.95915 8.18675 2.85126V2.35447H9.05071V2.87293C9.65554 2.95927 10.1956 3.19689 10.6492 3.521L10.0876 4.47149C9.74198 4.23387 9.3748 4.06103 9.00758 3.95302V5.33549C10.3252 5.68114 10.8868 6.19945 10.8868 7.17165V7.1932C10.8868 8.14368 10.1524 8.77003 9.05067 8.87808V9.72052H8.18671V8.85655C7.45231 8.77022 6.71792 8.46781 6.15617 8.03568L6.80424 7.10691C7.27947 7.45256 7.71149 7.71174 8.22995 7.81974V6.39404C6.97709 6.04824 6.37226 5.57301 6.37226 4.55776L6.3723 4.55766ZM2.39771 2.09514H5.42178L5.42193 3.19687H2.39786L2.39771 2.09514ZM2.39771 8.70505H5.42178V9.80667H2.39771V8.70505ZM15.9199 14.7965H1.10165V13.8461H15.8983L15.8982 14.7965H15.9199ZM15.9199 12.7445H1.10165V11.8588H15.8983L15.8982 12.7445H15.9199Z" fill="#ABABAB"/>
</svg>
