<svg width="18" height="18" viewBox="0 0 18 18" fill="none" xmlns="http://www.w3.org/2000/svg">
<g id="play">
<path id="shape" fill-rule="evenodd" clip-rule="evenodd" d="M6.23164 14.3369C5.90238 14.5306 5.65059 14.621 5.36007 14.621C4.79193 14.621 4.35938 14.1884 4.35938 13.4847V4.14273C4.35938 3.43256 4.79193 3 5.36007 3C5.65059 3 5.90238 3.09684 6.23164 3.28407L13.9209 7.73877C14.4954 8.07449 14.7601 8.35856 14.7601 8.81049C14.7601 9.26241 14.4954 9.54648 13.9209 9.8822L6.23164 14.3369ZM5.90246 12.6583C5.90246 12.71 5.92183 12.7358 5.96057 12.7358C5.97589 12.7358 5.99526 12.7277 6.01867 12.7179C6.02485 12.7154 6.0313 12.7127 6.03804 12.71L12.662 8.8815C12.6943 8.86213 12.7136 8.84276 12.7136 8.81048C12.7136 8.7782 12.6943 8.75883 12.662 8.74592L6.03804 4.911C6.0313 4.9083 6.02485 4.90561 6.01867 4.90303C5.99526 4.89326 5.97589 4.88517 5.96057 4.88517C5.92183 4.88517 5.90246 4.911 5.90246 4.95619V12.6583Z" fill="white"/>
</g>
</svg>
