<svg width="24" height="20" viewBox="0 0 24 20" fill="none" xmlns="http://www.w3.org/2000/svg">
<path fill-rule="evenodd" clip-rule="evenodd" d="M5.7587 0.5H12.2413C13.0463 0.499988 13.7106 0.499977 14.2518 0.544195C14.8139 0.59012 15.3306 0.688684 15.816 0.935975C16.5686 1.31947 17.1805 1.93139 17.564 2.68404C17.8113 3.16937 17.9099 3.68608 17.9558 4.24817C17.988 4.64201 17.9967 5.10107 17.9991 5.63207L22.4453 2.66795C22.7522 2.46338 23.1467 2.44431 23.4719 2.61833C23.797 2.79235 24 3.13121 24 3.5V16.5C24 16.8688 23.797 17.2077 23.4719 17.3817C23.1467 17.5557 22.7522 17.5366 22.4453 17.3321L17.9991 14.3679C17.9967 14.8989 17.988 15.358 17.9558 15.7518C17.9099 16.3139 17.8113 16.8306 17.564 17.316C17.1805 18.0686 16.5686 18.6805 15.816 19.064C15.3306 19.3113 14.8139 19.4099 14.2518 19.4558C13.7106 19.5 13.0463 19.5 12.2413 19.5H5.75868C4.95372 19.5 4.28936 19.5 3.74817 19.4558C3.18608 19.4099 2.66937 19.3113 2.18404 19.064C1.43139 18.6805 0.819468 18.0686 0.435975 17.316C0.188684 16.8306 0.0901197 16.3139 0.0441945 15.7518C-2.28137e-05 15.2106 -1.23241e-05 14.5463 4.31292e-07 13.7413V6.2587C-1.23241e-05 5.45373 -2.28137e-05 4.78937 0.0441945 4.24817C0.0901197 3.68608 0.188684 3.16937 0.435975 2.68404C0.819468 1.93139 1.43139 1.31947 2.18404 0.935975C2.66937 0.688684 3.18608 0.59012 3.74817 0.544195C4.28937 0.499977 4.95373 0.499988 5.7587 0.5ZM18 11.9648L22 14.6315V5.36852L18 8.03519V11.9648ZM3.91104 2.53755C3.47262 2.57337 3.24842 2.6383 3.09202 2.71799C2.7157 2.90973 2.40973 3.2157 2.21799 3.59202C2.1383 3.74842 2.07337 3.97262 2.03755 4.41104C2.00078 4.86113 2 5.44342 2 6.3V13.7C2 14.5566 2.00078 15.1389 2.03755 15.589C2.07337 16.0274 2.1383 16.2516 2.21799 16.408C2.40973 16.7843 2.7157 17.0903 3.09202 17.282C3.24842 17.3617 3.47262 17.4266 3.91104 17.4624C4.36113 17.4992 4.94342 17.5 5.8 17.5H12.2C13.0566 17.5 13.6389 17.4992 14.089 17.4624C14.5274 17.4266 14.7516 17.3617 14.908 17.282C15.2843 17.0903 15.5903 16.7843 15.782 16.408C15.8617 16.2516 15.9266 16.0274 15.9624 15.589C15.9992 15.1389 16 14.5566 16 13.7V6.3C16 5.44342 15.9992 4.86113 15.9624 4.41104C15.9266 3.97262 15.8617 3.74842 15.782 3.59202C15.5903 3.2157 15.2843 2.90973 14.908 2.71799C14.7516 2.6383 14.5274 2.57337 14.089 2.53755C13.6389 2.50078 13.0566 2.5 12.2 2.5H5.8C4.94342 2.5 4.36113 2.50078 3.91104 2.53755Z" fill="#564ECE"/>
</svg>
