<svg width="20" height="19" viewBox="0 0 20 19" fill="none" xmlns="http://www.w3.org/2000/svg">
<path d="M19.0194 6.86427C18.9439 6.62906 18.74 6.45761 18.4932 6.42121L12.7019 5.58622L10.1116 0.363865C10.0007 0.141032 9.77373 0 9.52697 0C9.27685 0 9.05029 0.141036 8.93983 0.363865L6.3501 5.58622L0.560293 6.42136C0.312655 6.4576 0.108626 6.6292 0.032537 6.86442C-0.0457164 7.09889 0.0201038 7.35725 0.198555 7.53044L4.3887 11.5951L3.40021 17.335C3.3578 17.5775 3.45711 17.8248 3.65853 17.9699C3.77218 18.0526 3.90617 18.0936 4.04264 18.0936C4.1462 18.0936 4.25152 18.0702 4.34542 18.0194L9.5275 15.3108L14.7073 18.0194C14.926 18.1343 15.1933 18.1146 15.3946 17.9702C15.5958 17.8249 15.6949 17.5776 15.6529 17.3353L14.6646 11.5954L18.8551 7.53073C19.034 7.35709 19.0979 7.09874 19.0195 6.86426L19.0194 6.86427ZM9.52697 13.7823C8.13434 13.7823 6.99956 12.6554 6.99956 11.2693C6.99956 9.8843 8.13449 8.75674 9.52697 8.75674C10.9181 8.75674 12.0509 9.8843 12.0509 11.2693C12.0509 12.6554 10.9181 13.7823 9.52697 13.7823ZM13.0451 7.81179H6.00684V7.33147H13.0451V7.81179Z" fill="#ABABAB"/>
</svg>
