<svg width="21" height="20" viewBox="0 0 21 20" fill="none" xmlns="http://www.w3.org/2000/svg">
<path d="M21 9.50675V10.8241C21.004 11.5816 20.703 12.3098 20.163 12.8483C19.6232 13.3868 18.8889 13.6914 18.1215 13.6953H17.6267C17.4198 13.6953 17.2519 13.5297 17.2519 13.3253V7.51246C17.3157 3.60499 13.5826 0.374726 9.65867 0.903744C8.11213 1.10279 6.68201 1.82054 5.60798 2.93685C4.53378 4.05316 3.88124 5.50003 3.75924 7.03495C3.7067 7.12382 3.73297 13.0034 3.72929 13.3252C3.7323 14.5902 4.24262 15.8027 5.1487 16.6972C6.05473 17.5916 7.28289 18.0955 8.56424 18.0985C8.72319 18.0892 8.88282 18.0966 9.04026 18.1206C9.25761 17.7136 9.8536 17.8209 10.2359 17.8097C10.4632 17.8264 10.666 17.9561 10.7749 18.1536C10.8838 18.351 10.8838 18.5896 10.7749 18.7871C10.666 18.9845 10.463 19.114 10.2358 19.1308C9.86097 19.1308 9.25375 19.227 9.04009 18.8163C7.62856 18.9265 6.22706 18.5068 5.1152 17.6412C4.00352 16.7754 3.2636 15.5275 3.04343 14.1467C3.04343 13.9987 3.00595 13.8507 2.99841 13.7027C2.21352 13.7286 1.45153 13.4395 0.88646 12.9012C0.32143 12.3629 0.00149921 11.6213 0 10.8461V9.50658C0.00702743 8.72328 0.33799 7.97661 0.916273 7.44011C1.49456 6.9036 2.26976 6.62345 3.0622 6.66489C4.41148 -2.06371 16.645 -2.0045 17.9343 6.66489H18.1217C18.8839 6.66885 19.6137 6.96949 20.1527 7.50155C20.6916 8.03361 20.9959 8.75432 21 9.50675ZM14.6283 6.11367C14.5773 6.13845 14.5345 6.17693 14.5047 6.22467L14.4485 6.27274L13.1741 7.5308L12.6869 7.05341L13.9649 5.79536C13.9831 5.77735 13.9995 5.75769 14.0136 5.73639C14.1168 5.66205 14.1746 5.54114 14.1669 5.41543C14.1593 5.28972 14.0875 5.17641 13.9761 5.11463C13.2871 4.74412 12.4749 4.6668 11.7268 4.90071C10.9788 5.13478 10.3598 5.65956 10.0125 6.35435C9.66535 7.04897 9.62 7.8534 9.88705 8.58172L9.30977 9.15164L8.10672 7.93802L8.30533 7.17947L7.0648 5.95097C7.02448 5.90983 6.96909 5.88655 6.91103 5.88655C6.85314 5.88655 6.79776 5.90984 6.75744 5.95097L5.53567 7.15354C5.49384 7.19319 5.47041 7.24803 5.47041 7.30518C5.47041 7.3625 5.49384 7.41718 5.53567 7.45699L6.78005 8.68548L7.59708 8.47454L8.77768 9.67348L6.08279 12.334C5.89238 12.5119 5.76153 12.7428 5.70799 12.996C5.63838 13.3399 5.72171 13.6967 5.93689 13.9756C6.15207 14.2544 6.47836 14.4285 6.83273 14.4536C7.18695 14.4786 7.535 14.3521 7.78815 14.1061C8.87876 13.033 10.5466 11.3901 11.6299 10.3134C14.0812 11.2125 16.3935 8.53367 15.138 6.2802C15.0938 6.19051 15.0146 6.12229 14.9188 6.0909C14.8227 6.05951 14.718 6.06775 14.6283 6.11367ZM12.0909 10.9019L10.5654 12.4079L12.1584 13.9805C12.3178 14.1296 12.5291 14.2127 12.7487 14.2127C12.9684 14.2127 13.1797 14.1296 13.339 13.9805L13.6838 13.6364C13.8409 13.4828 13.9293 13.2737 13.9293 13.0555C13.9293 12.8372 13.8409 12.6281 13.6838 12.4745L12.0909 10.9019Z" fill="#ABABAB"/>
</svg>
