<svg width="17" height="17" viewBox="0 0 17 17" fill="none" xmlns="http://www.w3.org/2000/svg">
<path d="M16.7984 0.257204C16.6725 0.153723 16.5049 0.116331 16.347 0.156331L9.03191 1.87754V4.14062C10.4389 4.29859 11.7036 5.07166 12.4857 6.25165C13.2681 7.43183 13.4877 8.89763 13.0853 10.255C13.0444 10.3902 12.9515 10.5037 12.8269 10.5703C12.7024 10.6372 12.5565 10.6516 12.4212 10.6109C12.2863 10.5712 12.1728 10.4793 12.106 10.3557C12.0392 10.2319 12.0246 10.0867 12.0653 9.95221C12.2022 9.49452 12.2475 9.01423 12.1982 8.53899C12.1185 7.71043 11.7632 6.93244 11.1893 6.32953C10.6153 5.72676 9.8557 5.3337 9.03193 5.21357C8.7383 5.16908 8.44033 5.16197 8.14482 5.19226C8.08568 5.19589 8.02713 5.20487 7.96959 5.21879C6.77988 5.38792 5.74577 6.12256 5.19461 7.19043C4.64346 8.25812 4.64346 9.52656 5.19461 10.5944C5.74577 11.6621 6.77988 12.3967 7.96959 12.5659C8.26119 12.6121 8.55744 12.621 8.85136 12.5924C8.91223 12.5892 8.97281 12.5802 9.03195 12.5659C9.44571 12.5126 9.84674 12.3868 10.2166 12.194C10.3414 12.1281 10.4873 12.1147 10.6221 12.1568C10.7568 12.1988 10.8692 12.2929 10.9343 12.4182C10.9994 12.5434 11.0119 12.6894 10.9688 12.8239C10.9259 12.9583 10.8311 13.07 10.7055 13.1343C10.1837 13.4048 9.61634 13.5759 9.03199 13.639V16.7202L16.5915 14.9406L16.5917 14.9405C16.8323 14.8863 17.0026 14.6718 17.0007 14.4252V0.671487C17.0011 0.509599 16.9266 0.356553 16.7988 0.257131L16.7984 0.257204ZM10.6309 9.34648L9.03176 10.3079L7.96927 10.9455L7.44331 11.259H7.44346C7.36215 11.3093 7.26809 11.3351 7.17244 11.3333C7.07939 11.3338 6.98794 11.3099 6.90693 11.2642C6.74112 11.1697 6.63953 10.9929 6.64127 10.802V6.97717C6.63909 6.78557 6.7417 6.60803 6.90866 6.51399C7.07562 6.41993 7.28069 6.42442 7.44345 6.52558L7.96941 6.83906L9.0319 7.47648L10.6309 8.43809C10.7909 8.53244 10.8898 8.70389 10.8912 8.8897C10.8899 9.07695 10.7912 9.24999 10.6309 9.3465L10.6309 9.34648ZM12.06 11.923C11.9621 12.0227 11.8278 12.0784 11.6881 12.077C11.5468 12.0784 11.4108 12.0229 11.3108 11.923C11.2121 11.8233 11.1568 11.6887 11.1568 11.5484C11.1568 11.4081 11.2121 11.2736 11.3108 11.1739C11.3581 11.1227 11.4162 11.0827 11.4808 11.0571C11.5782 11.0182 11.6849 11.0085 11.7878 11.0292C11.8906 11.0501 11.9852 11.1002 12.06 11.1739C12.1617 11.2718 12.2193 11.4071 12.2193 11.5484C12.2193 11.6897 12.1617 11.8249 12.06 11.923H12.06Z" fill="#ABABAB"/>
<path d="M7.96907 8.07754L7.70312 7.91797V9.86772L7.96907 9.70859L9.03142 9.06539L9.32374 8.89016L9.03142 8.71494L7.96907 8.07754Z" fill="#ABABAB"/>
<path d="M3.73986 9.34697C3.62131 8.09811 3.99813 6.8526 4.789 5.87878C5.58002 4.90514 6.7218 4.28094 7.96846 4.14077V1.87783L0.653412 0.156629C0.613557 0.146339 0.57254 0.140976 0.531235 0.140687C0.410942 0.138802 0.29413 0.180252 0.201953 0.257499C0.0741252 0.356921 -0.00036835 0.509968 6.57449e-05 0.671855V14.4256C-0.00384742 14.6729 0.167314 14.8885 0.409042 14.9408L7.9686 16.7204V13.6392V13.6394C6.87843 13.5171 5.8635 13.0239 5.09363 12.2424C4.32376 11.4611 3.84592 10.4388 3.74 9.34699L3.73986 9.34697Z" fill="#ABABAB"/>
</svg>
